<?xml version="1.0" encoding="utf-8"?>
<!-- Generator: Adobe Illustrator 16.0.0, SVG Export Plug-In . SVG Version: 6.00 Build 0)  -->
<!DOCTYPE svg PUBLIC "-//W3C//DTD SVG 1.1//EN" "http://www.w3.org/Graphics/SVG/1.1/DTD/svg11.dtd">
<svg version="1.1" id="Layer_1" xmlns="http://www.w3.org/2000/svg" xmlns:xlink="http://www.w3.org/1999/xlink" x="0px" y="0px"
	 width="676px" height="368px" viewBox="0 0 676 368" enable-background="new 0 0 676 368" xml:space="preserve">
<rect x="-230" y="-489.538" fill="none" width="1122.66" height="1584.538"/>
<g>
	<path fill="#F36D50" d="M211.285,133.153c1.633,3.617,3.15,7.292,4.55,11.025l8.05-11.2c1.167-1.867,2.8-2.392,4.9-1.575
		c2.1,0.817,4.083,2.275,5.95,4.375c1.633,1.867,2.742,4.025,3.325,6.475c0.583,2.45,0.175,4.609-1.225,6.475
		c-1.867,2.8-4.492,6.942-7.875,12.425c-3.383,5.483-6.941,11.434-10.675,17.851c-3.733,6.417-7.409,13.008-11.025,19.775
		c-3.617,6.767-6.475,12.717-8.575,17.85c-2.8,6.534-5.25,12.833-7.35,18.9s-4.083,11.784-5.95,17.15
		c-4.2,13.3-6.825,24.15-7.875,32.55c-1.05,8.4-0.175,13.3,2.625,14.701c1.633,0.933,4.083,0.408,7.35-1.575s6.883-4.784,10.85-8.4
		s8.225-7.992,12.775-13.125c4.55-5.133,9.042-10.384,13.475-15.75c7.233-8.867,13.767-17.325,19.601-25.375
		c5.833-8.05,9.8-13.942,11.9-17.675c1.4-2.566,2.8-3.908,4.2-4.025s2.567,0.525,3.5,1.925c0.934,1.4,1.517,3.15,1.75,5.25
		s-0.117,4.2-1.05,6.3c-1.867,4.667-5.892,11.434-12.075,20.3c-6.184,8.867-13.009,17.967-20.476,27.301
		c-6.3,7.934-12.658,15.167-19.075,21.7c-6.417,6.534-11.958,11.2-16.625,14c-3.267,1.867-6.825,2.742-10.675,2.625
		s-7.467-1.225-10.851-3.325c-3.383-2.101-6.3-5.017-8.75-8.75s-3.908-8.167-4.375-13.3c-0.467-4.667-0.35-9.625,0.35-14.875
		c0.7-5.25,1.633-10.558,2.8-15.925c2.333-9.333,5.017-17.733,8.05-25.2s5.017-12.134,5.95-14c-0.934,1.167-2.917,3.792-5.95,7.875
		c-3.033,4.083-6.883,9.158-11.55,15.225c-4.667,6.067-10.092,12.775-16.275,20.125c-6.183,7.35-12.892,14.875-20.125,22.575
		c-9.567,10.034-19.659,19.717-30.276,29.05c-10.617,9.334-21.525,17.15-32.726,23.451c-3.967,2.1-7.758,3.149-11.375,3.149
		s-7.059-0.816-10.325-2.45c-4.2-2.1-7.817-5.191-10.85-9.275c-3.034-4.083-5.25-8.458-6.65-13.125
		c-1.4-4.9-1.458-11.725-0.175-20.475s3.733-18.55,7.35-29.4s8.284-22.284,14-34.301c5.716-12.017,12.192-23.742,19.425-35.175
		c18.434-28.934,35.817-51.16,52.151-66.676c16.333-15.517,29.517-25.375,39.55-29.576c6.3-2.567,12.076-3.5,17.326-2.8
		c5.25,0.7,9.975,2.333,14.175,4.9c4.2,2.567,7.875,5.775,11.025,9.625c3.15,3.85,5.775,7.525,7.875,11.025
		C207.668,125.745,209.651,129.536,211.285,133.153z M55.007,322.506c5.017-2.449,10.675-6.241,16.975-11.375
		c6.3-5.133,13.067-11.316,20.3-18.55c7.233-7.233,14.7-15.05,22.4-23.45c8.167-9.1,16.392-18.55,24.675-28.351
		c8.284-9.8,16.334-19.483,24.15-29.05c7.817-9.567,15.167-18.842,22.051-27.826c6.883-8.983,13.008-16.975,18.375-23.976
		c-0.7-4.2-1.633-8.691-2.8-13.475c-1.167-4.783-2.8-9.45-4.9-14c-2.1-4.55-4.725-8.634-7.875-12.25s-7.175-6.125-12.075-7.525
		c-3.267-0.934-8.225,0.175-14.875,3.325c-6.65,3.15-14.351,8.517-23.101,16.1s-18.317,17.5-28.701,29.75
		c-10.383,12.25-20.942,26.892-31.675,43.926c-7.934,12.367-14.992,25.317-21.175,38.851c-6.184,13.534-11.025,26.017-14.525,37.451
		s-5.309,21.059-5.425,28.875c-0.117,7.817,1.925,12.425,6.125,13.825C45.965,325.715,49.99,324.957,55.007,322.506z"/>
	<path fill="#F36D50" d="M307.879,188.454c5.834,3.15,10.384,7.992,13.65,14.525l5.95-7.7c1.167-1.634,2.509-2.45,4.025-2.45
		s2.975,0.583,4.375,1.75c2.333,1.633,4.142,3.908,5.425,6.825c1.283,2.917,1.342,5.308,0.175,7.175
		c-3.267,4.667-6.941,11.317-11.024,19.951c-4.084,8.633-7.643,17.267-10.676,25.9c-3.033,8.867-4.899,16.684-5.6,23.45
		c-0.7,6.767,0.7,10.617,4.2,11.55c1.633,0.467,3.675-0.058,6.125-1.575c2.45-1.517,5.133-3.675,8.05-6.475
		c2.917-2.8,6.066-6.008,9.45-9.625s6.708-7.525,9.976-11.725c3.733-4.434,7.35-8.983,10.85-13.65
		c3.5-4.667,6.709-9.042,9.625-13.125c2.917-4.083,5.309-7.642,7.176-10.675c1.866-3.033,3.149-5.133,3.85-6.3
		c1.167-2.1,2.45-2.858,3.851-2.275c1.399,0.583,2.566,1.809,3.5,3.675c0.699,1.4,1.108,3.033,1.225,4.9
		c0.117,1.867-0.175,3.5-0.875,4.9c-1.633,3.267-4.725,8.458-9.275,15.575c-4.55,7.117-9.625,14.409-15.225,21.875
		c-3.967,5.367-7.876,10.325-11.726,14.875c-3.85,4.55-7.408,8.225-10.675,11.025c-6.768,6.067-13.592,9.742-20.476,11.025
		s-13.009-1.108-18.375-7.175c-4.667-5.367-6.767-12.833-6.301-22.4c0.467-9.8,3.033-19.25,7.7-28.35
		c-3.267,4.667-7.233,9.858-11.9,15.575c-4.667,5.717-9.625,11.375-14.875,16.975s-10.559,10.909-15.925,15.925
		s-10.383,9.159-15.05,12.425c-3.967,2.8-7.525,4.024-10.675,3.675c-3.15-0.35-5.892-1.691-8.225-4.025
		c-3.033-3.033-5.25-6.883-6.65-11.55c-1.4-4.667-1.517-8.867-0.35-12.6c1.867-6.767,5.075-14.992,9.625-24.675
		c4.55-9.684,9.859-19.425,15.925-29.226c3.267-5.133,6.708-10.092,10.325-14.875c3.617-4.783,7.234-8.983,10.851-12.6
		s7.292-6.65,11.025-9.1s7.35-4.025,10.85-4.725C296.679,184.196,302.046,185.304,307.879,188.454z M241.203,292.406
		c2.684-1.75,5.892-4.434,9.625-8.05s7.934-7.933,12.601-12.95c4.667-5.017,9.566-10.442,14.7-16.275
		c6.066-7,12.192-14.175,18.375-21.525c6.184-7.351,11.959-14.409,17.325-21.176c-1.866-2.8-4.024-5.658-6.475-8.575
		c-2.45-2.917-4.726-4.492-6.825-4.725c-2.567-0.233-5.25,0.583-8.05,2.45s-5.775,4.375-8.925,7.525
		c-3.15,3.15-6.358,6.825-9.625,11.025s-6.417,8.634-9.45,13.3c-4.2,6.534-8.225,13.3-12.075,20.3s-7.117,13.359-9.8,19.076
		c-2.683,5.716-4.667,10.558-5.95,14.525c-1.283,3.967-1.575,6.184-0.875,6.65C236.711,294.681,238.52,294.156,241.203,292.406z"/>
	<path fill="#F36D50" d="M441.574,108.478c2.333,0.934,4.434,2.684,6.3,5.25c1.167,1.633,2.042,3.383,2.625,5.25
		c0.584,1.867,0.642,3.733,0.175,5.6c-0.933,2.333-2.8,6.534-5.6,12.601c-2.8,6.066-5.892,12.892-9.275,20.475
		c-3.383,7.583-6.884,15.4-10.5,23.451c-3.617,8.05-6.709,15.342-9.275,21.875l-3.149,7c4.199-0.934,9.392-2.45,15.575-4.55
		c6.183-2.1,13.3-4.958,21.35-8.575c8.051-3.617,16.859-8.108,26.426-13.475s19.717-11.9,30.45-19.601
		c17.734-13.067,29.518-24.092,35.351-33.075c5.834-8.984,7.934-16.275,6.301-21.875c-1.167-4.434-5.075-8.225-11.726-11.375
		c-6.65-3.15-14.642-5.6-23.976-7.35c-9.333-1.75-19.367-2.917-30.101-3.5c-10.733-0.583-20.884-0.525-30.45,0.175
		c-14,1.167-26.192,2.917-36.575,5.25c-10.384,2.333-19.018,4.842-25.901,7.525c-6.883,2.684-12.017,5.25-15.399,7.7
		c-3.384,2.45-5.075,4.142-5.075,5.075c-0.233,2.567-1.575,3.208-4.025,1.925c-2.45-1.283-4.608-3.208-6.475-5.775
		c-1.167-1.867-1.983-3.792-2.45-5.775s0-3.559,1.399-4.725c1.634-1.4,5.717-3.85,12.251-7.35c6.533-3.5,15.108-6.942,25.725-10.325
		c10.617-3.384,23.159-6.125,37.626-8.225c14.467-2.1,30.567-2.567,48.301-1.4c14.934,1.167,27.534,3.15,37.801,5.95
		c10.267,2.8,18.551,6.242,24.851,10.325s10.85,8.692,13.65,13.825c2.8,5.133,4.2,10.617,4.2,16.45
		c0.233,6.534-1.518,13.125-5.251,19.775c-3.733,6.65-8.633,13.125-14.7,19.425c-6.066,6.3-12.95,12.425-20.65,18.375
		s-15.691,11.375-23.975,16.275c-8.284,4.9-16.45,9.275-24.501,13.125c-8.05,3.85-15.225,6.942-21.525,9.275
		c9.101,0.7,17.851,1.983,26.251,3.85c7.233,1.633,14.7,3.908,22.4,6.825c7.7,2.917,14.233,6.708,19.6,11.375
		c8.634,8.167,12.775,16.509,12.426,25.025c-0.351,8.517-4.842,16.976-13.476,25.375c-6.767,6.534-15.634,12.542-26.601,18.025
		s-22.4,10.208-34.3,14.175c-11.201,3.734-21.817,6.592-31.851,8.576c-10.034,1.982-17.851,2.741-23.451,2.274
		c-3.267,0-6.066-0.642-8.399-1.925c-2.334-1.283-4.084-2.742-5.251-4.375c-1.399-1.867-1.866-3.617-1.399-5.25
		c0.467-1.634,1.983-2.217,4.55-1.75c1.167,0.232,3.733,0.116,7.7-0.351c3.967-0.466,8.75-1.283,14.351-2.45
		c5.6-1.166,11.9-2.684,18.9-4.55s14.116-4.083,21.35-6.65c9.801-3.5,19.426-7.525,28.876-12.075
		c9.45-4.55,17.325-9.859,23.625-15.925c6.768-6.534,10.501-12.425,11.2-17.675c0.7-5.25-3.033-10.325-11.2-15.226
		c-1.866-1.167-4.842-2.45-8.925-3.85s-8.867-2.742-14.351-4.025s-11.434-2.45-17.85-3.5c-6.417-1.05-12.893-1.809-19.426-2.275
		c-13.066-0.466-22.867,0.233-29.4,2.1s-11.084,3.5-13.65,4.9c-3.733,8.867-7.583,18.375-11.55,28.525s-7.642,19.775-11.025,28.875
		s-6.184,17.208-8.4,24.325c-2.217,7.117-3.441,12.076-3.675,14.876c-0.467,4.2-1.867,6.476-4.2,6.825s-4.783-0.291-7.351-1.926
		c-2.1-1.399-3.85-3.091-5.25-5.074c-1.399-1.983-1.866-3.792-1.399-5.426c0.7-1.633,2.625-6.475,5.774-14.525
		c3.15-8.049,6.825-17.558,11.025-28.525s8.75-22.575,13.65-34.826c4.9-12.25,9.45-23.509,13.65-33.775l42.001-102.902
		C437.49,108.244,439.24,107.544,441.574,108.478z"/>
	<path fill="#F36D50" d="M597.67,193.879c-0.7,1.167-1.284,2.45-1.75,3.85c2.566-2.566,5.6-4.783,9.1-6.65s7.351-3.383,11.551-4.55
		c7.467-1.4,13.883,0.233,19.25,4.9c5.6,4.9,8.634,11.317,9.101,19.25c0.232,6.767-2.217,15.167-7.351,25.201
		c-5.134,10.033-11.55,20.067-19.25,30.101c-4.434,5.833-9.042,11.375-13.825,16.625c-4.784,5.25-9.45,9.975-14.001,14.175
		c-4.55,4.2-8.866,7.583-12.95,10.151c-4.083,2.566-7.524,4.083-10.325,4.549c-5.366,0.934-10.033-0.933-14-5.6
		c-1.634-1.867-2.975-4.025-4.025-6.475c-1.05-2.45-1.691-4.958-1.925-7.525c-0.7-6.534,1.75-18.2,7.351-35
		c2.333-6.767,5.133-14.409,8.399-22.926c3.268-8.517,7.234-17.792,11.9-27.825l25.201-53.551c2.8-5.833,5.541-11.608,8.225-17.325
		s5.191-10.967,7.525-15.75c2.333-4.784,4.434-8.925,6.3-12.425c1.867-3.5,3.267-6.067,4.2-7.7c1.866-2.8,3.675-4.317,5.425-4.55
		c1.75-0.233,3.209,0.35,4.375,1.75c1.4,1.634,2.392,3.909,2.976,6.825c0.583,2.917,0.291,6.009-0.875,9.275
		c-1.167,3.267-3.559,8.692-7.176,16.275c-3.616,7.583-7.758,15.809-12.425,24.675l-19.25,36.75
		C598.953,191.546,598.369,192.712,597.67,193.879z M590.319,224.33c-1.866,0.233-3.616-0.583-5.25-2.45
		c-2.333,5.367-4.725,10.967-7.175,16.8s-4.726,11.55-6.825,17.15c-3.967,10.733-7.176,20.125-9.625,28.176
		c-2.45,8.05-2.976,12.658-1.575,13.825c1.399,1.167,3.733,0.758,7-1.225s6.941-4.958,11.025-8.925
		c4.083-3.967,8.399-8.575,12.95-13.825c4.55-5.25,8.925-10.675,13.125-16.275c3.5-4.433,7.175-9.625,11.025-15.575
		c3.85-5.95,7.233-11.784,10.15-17.5c2.916-5.717,5.017-10.967,6.3-15.75c1.283-4.784,1.225-8.225-0.175-10.325
		c-1.167-1.633-3.733-1.692-7.7-0.175c-3.967,1.517-8.284,3.909-12.95,7.175c-3.267,2.333-6.358,4.842-9.275,7.525
		c-2.917,2.683-5.191,5.308-6.825,7.875C593.119,222.696,591.72,223.863,590.319,224.33z"/>
</g>
</svg>
