<?xml version="1.0" encoding="utf-8"?>
<!-- Generator: Adobe Illustrator 16.0.0, SVG Export Plug-In . SVG Version: 6.00 Build 0)  -->
<!DOCTYPE svg PUBLIC "-//W3C//DTD SVG 1.1//EN" "http://www.w3.org/Graphics/SVG/1.1/DTD/svg11.dtd">
<svg version="1.1" id="Layer_1" xmlns="http://www.w3.org/2000/svg" xmlns:xlink="http://www.w3.org/1999/xlink" x="0px" y="0px"
	 width="99.21px" height="99.21px" viewBox="0 0 99.21 99.21" enable-background="new 0 0 99.21 99.21" xml:space="preserve">
<path fill="#DB3B95" d="M35.28,42.492c-1.278,0-2.381,0.438-3.274,1.33c-0.893,0.893-1.348,1.979-1.348,3.275
	c0,1.295,0.455,2.381,1.348,3.274c0.893,0.893,1.996,1.33,3.274,1.33c1.296,0,2.382-0.438,3.275-1.33
	c0.893-0.893,1.348-1.979,1.348-3.274c0-1.296-0.455-2.382-1.348-3.275C37.663,42.93,36.576,42.492,35.28,42.492 M37.225,49.075
	c-0.525,0.525-1.173,0.788-1.944,0.788c-0.77,0-1.418-0.263-1.943-0.788c-0.525-0.525-0.788-1.191-0.788-1.978
	c0-0.788,0.263-1.454,0.788-1.979c0.525-0.525,1.173-0.788,1.943-0.788c0.771,0,1.419,0.263,1.944,0.788
	c0.525,0.525,0.788,1.191,0.788,1.979C38.012,47.884,37.75,48.55,37.225,49.075"/>
<path fill="#DB3B95" d="M45.194,49.845c-0.77,0-1.418-0.263-1.943-0.788c-0.508-0.525-0.771-1.173-0.771-1.961
	c0-0.788,0.263-1.436,0.771-1.961c0.525-0.525,1.173-0.788,1.943-0.788c1.05,0,1.891,0.508,2.294,1.348l1.628-0.945
	c-0.7-1.383-2.206-2.259-3.904-2.259c-1.314,0-2.417,0.438-3.31,1.331c-0.875,0.875-1.313,1.961-1.313,3.274
	c0,1.296,0.438,2.381,1.313,3.274c0.893,0.894,1.996,1.331,3.31,1.331c1.698,0,3.186-0.875,3.939-2.276l-1.628-0.928
	C47.103,49.32,46.227,49.845,45.194,49.845"/>
<path fill="#DB3B95" d="M57.111,43.962c-0.718-0.98-1.733-1.47-3.063-1.47c-1.208,0-2.225,0.437-3.082,1.33
	c-0.858,0.893-1.278,1.979-1.278,3.274c0,1.279,0.42,2.382,1.278,3.275c0.857,0.893,1.874,1.33,3.082,1.33
	c1.33,0,2.346-0.49,3.063-1.488v1.261h1.892v-8.754h-1.892V43.962z M56.323,49.11c-0.524,0.525-1.19,0.788-1.979,0.788
	c-0.787,0-1.453-0.263-1.978-0.788c-0.525-0.543-0.788-1.208-0.788-2.014c0-0.805,0.263-1.47,0.788-1.996
	c0.524-0.542,1.19-0.805,1.978-0.805c0.788,0,1.454,0.263,1.979,0.805c0.525,0.526,0.788,1.191,0.788,1.996
	C57.111,47.902,56.849,48.567,56.323,49.11"/>
<path fill="#DB3B95" d="M64.026,46.273c-0.911-0.263-1.646-0.56-1.646-1.138c0-0.613,0.561-0.928,1.278-0.928
	c0.788,0,1.348,0.333,1.646,0.998l1.594-0.893c-0.612-1.138-1.785-1.821-3.239-1.821c-0.91,0-1.682,0.245-2.293,0.736
	c-0.613,0.49-0.911,1.138-0.911,1.943c-0.035,1.838,1.734,2.364,3.047,2.696c0.928,0.228,1.663,0.561,1.663,1.121
	c0,0.648-0.49,0.98-1.488,0.98s-1.646-0.42-1.943-1.26l-1.629,0.945c0.561,1.278,1.839,2.049,3.572,2.049
	c0.98,0,1.786-0.244,2.435-0.718c0.646-0.473,0.979-1.138,0.979-1.979C67.125,47.131,65.374,46.572,64.026,46.273"/>
<path fill="#DB3B95" d="M76.909,47.034c0-1.278-0.42-2.381-1.243-3.274c-0.822-0.893-1.873-1.348-3.151-1.348
	c-1.349,0-2.468,0.437-3.326,1.33c-0.858,0.876-1.296,1.961-1.296,3.274c0,1.331,0.438,2.434,1.313,3.309
	c0.876,0.858,2.031,1.296,3.449,1.296c1.699,0,2.978-0.63,3.835-1.908l-1.558-0.911c-0.508,0.718-1.261,1.086-2.259,1.086
	c-1.453,0-2.521-0.736-2.802-2.066h6.969C76.892,47.489,76.909,47.227,76.909,47.034 M69.854,46.281
	c0.263-1.331,1.243-2.154,2.644-2.154c1.243,0,2.241,0.736,2.505,2.154H69.854z"/>
<path fill="#DB3B95" d="M28.21,50.721l0.09-0.079c0.088-0.076,0.175-0.156,0.26-0.24c0.893-0.893,1.348-1.979,1.348-3.275
	c0-0.761-0.161-1.448-0.473-2.067l-1.636,0.944c0.143,0.34,0.218,0.714,0.218,1.123c0,0.788-0.263,1.454-0.788,1.979
	s-1.173,0.788-1.944,0.788c-0.77,0-1.418-0.263-1.943-0.788c-0.525-0.525-0.788-1.191-0.788-1.979c0-0.787,0.263-1.453,0.788-1.978
	c0.525-0.525,1.173-0.788,1.943-0.788h1.632c0.224,0.013,0.985-0.016,1.677-0.472l-0.001-0.001c0.08-0.056,0.158-0.116,0.235-0.186
	c0.373-0.339,0.818-0.976,0.818-2.077h-1.837c0,0.341-0.071,0.582-0.212,0.714c-0.201,0.188-0.549,0.186-0.604,0.185l-1.708-0.003
	v0.002c-1.278,0-2.381,0.437-3.274,1.33c-0.893,0.893-1.348,1.979-1.348,3.274c0,1.296,0.455,2.382,1.348,3.275
	c0.893,0.894,1.996,1.33,3.274,1.33c0.331,0,0.648-0.029,0.952-0.086c0.819,0.246,1.58,0.846,1.58,1.915
	c0,1.309-1.025,2.188-2.551,2.188c-1.431,0-2.526-0.858-2.621-2.022h-1.982c0.086,2.286,1.954,3.868,4.603,3.868
	c2.72,0,4.548-1.621,4.548-4.033C29.814,52.251,29.3,51.356,28.21,50.721"/>
<rect fill="none" width="99.21" height="99.21"/>
<g>
	<path d="M35.021,56.478c0.182,0.109,0.324,0.26,0.426,0.453c0.102,0.191,0.153,0.406,0.153,0.645c0,0.182-0.031,0.35-0.093,0.504
		c-0.062,0.156-0.146,0.285-0.252,0.391c-0.107,0.107-0.233,0.189-0.38,0.248c-0.146,0.061-0.303,0.09-0.469,0.09
		c-0.177,0-0.339-0.037-0.484-0.109c-0.146-0.072-0.269-0.174-0.368-0.309h-0.007v0.387h-0.388v-3.682h0.405v1.607h0.01
		c0.101-0.127,0.223-0.223,0.368-0.289c0.144-0.066,0.3-0.102,0.467-0.102C34.635,56.312,34.839,56.368,35.021,56.478z
		 M34.96,58.194c0.151-0.162,0.227-0.369,0.227-0.617c0-0.268-0.079-0.482-0.235-0.646c-0.157-0.164-0.354-0.248-0.59-0.248
		c-0.153,0-0.292,0.041-0.416,0.119c-0.125,0.08-0.222,0.188-0.292,0.324s-0.105,0.287-0.105,0.451c0,0.125,0.022,0.242,0.066,0.35
		c0.044,0.109,0.104,0.199,0.178,0.273s0.162,0.133,0.261,0.174s0.204,0.063,0.313,0.063C34.611,58.437,34.809,58.356,34.96,58.194z
		"/>
	<path d="M38.354,56.341l-1.377,3.424h-0.43l0.435-1.084l-1.028-2.34h0.432l0.791,1.854h0.012l0.735-1.854H38.354z"/>
</g>
</svg>
