<?xml version="1.0" encoding="utf-8"?>
<!-- Generator: Adobe Illustrator 16.0.0, SVG Export Plug-In . SVG Version: 6.00 Build 0)  -->
<!DOCTYPE svg PUBLIC "-//W3C//DTD SVG 1.1//EN" "http://www.w3.org/Graphics/SVG/1.1/DTD/svg11.dtd">
<svg version="1.1" id="Layer_1" xmlns="http://www.w3.org/2000/svg" xmlns:xlink="http://www.w3.org/1999/xlink" x="0px" y="0px"
	 width="1122.66px" height="1584.54px" viewBox="0 0 1122.66 1584.54" enable-background="new 0 0 1122.66 1584.54"
	 xml:space="preserve">
<path fill="#F36D50" d="M160.44,993.521c2.904,4.265,5.545,8.146,8.182,12.019c-8.66,3.138-10.473,5.367-10.985,15.534
	c-0.636,12.646-1.272,25.314-1.186,37.968c0.411,60.468,0.676,120.94,1.965,181.391c0.257,12.067,3.132,24.697,7.652,35.921
	c8.291,20.589,26.142,31.933,46.786,36.11c30.677,6.21,61.767,10.944,92.901,14.217c68.825,7.232,137.918,6.22,206.972,3.87
	c19.918-0.68,39.835-1.623,59.724-2.913h0.005l72.916-0.37c6.039,0.009,12.077-0.023,18.114-0.092l0.496-0.003l0.002-0.004
	c52.752-0.622,105.488-3.722,158.263-1.053c25.771,1.305,49.494-6.501,72.144-17.573c31.199-15.252,50.741-38.372,49.587-75.48
	c-0.614-19.75,0.788-39.557,0.91-59.339c0.423-68.578,0.611-137.156,1.027-205.734c0.378-62.299,3.147-124.686,0.638-186.863
	c-1.676-41.548-10.815-82.79-16.48-124.187c-3.275-23.939-7.055-47.85-9.049-71.902c-0.849-10.23-3.507-17.492-9.785-20.102
	c1.096-8.435,4.599-16.439,2.483-22.472c-8.04-22.936-18.226-45.106-27.002-67.798c-16.771-43.359-41.599-80.582-79.849-108.046
	c-34.929-25.078-69.573-50.377-113.104-59.34c-12.374-2.547-18.594-12.591-21.213-24.914c-2.939-13.835-5.135-28.046-10.032-41.209
	c-17.441-46.871-68.166-77.031-116.622-70.438c-49.846,6.782-86.996,45.41-92.348,96.683c-2.365,22.653-14.757,36.19-35.7,43.447
	c-24.652,8.541-49.819,16.083-73.451,26.92c-18.976,8.702-39.831,16.604-50.288,37.571c-0.552,1.108-3.269,1.108-4.959,1.682
	c-2.821,0.958-6.291,1.221-8.341,3.057c-49.869,44.667-79.716,101.112-93.391,165.781c-5.346,25.281-4.721,51.8-7.172,77.721
	c-3.944,41.707-11.853,83.426-11.398,125.068c0.612,55.848-4.952,111.076-8.022,166.572
	C160.83,915.22,152.258,981.501,160.44,993.521 M479.199,225.175c22.268-25.071,48.575-41.705,83.826-39.778
	c34.086,1.071,63.596,12.089,82.873,42.017c12.563,19.503,9.86,40.763,2.55,61.348c-1.157,3.259-7.884,6.813-11.696,6.468
	c-18.492-1.671-36.854-4.745-55.297-7.036c-4.373-0.543-8.91-0.281-13.324,0.127c-28.424,2.632-56.823,5.564-85.271,7.886
	c-2.793,0.228-6.969-2.262-8.639-4.744C461.004,271.825,463.334,243.036,479.199,225.175"/>
<rect y="0.002" fill="none" width="1122.659" height="1584.538"/>
<path fill="#FAD0DA" d="M516.326,1204.229c0,7.827-8.138,14.173-18.177,14.173h-102.17c-10.039,0-18.177-6.346-18.177-14.173
	V443.497c0-7.828,8.139-14.173,18.177-14.173h102.17c10.039,0,18.177,6.346,18.177,14.173V1204.229z"/>
<path fill="#FAD0DA" d="M748.311,1204.229c0,7.827-8.139,14.173-18.178,14.173h-102.17c-10.039,0-18.178-6.346-18.178-14.173
	V443.497c0-7.828,8.139-14.173,18.178-14.173h102.17c10.039,0,18.178,6.346,18.178,14.173V1204.229z"/>
<ellipse fill="#FAD0DA" cx="447.063" cy="1203.401" rx="69.262" ry="63.006"/>
<ellipse fill="#FAD0DA" cx="679.048" cy="1203.401" rx="69.263" ry="63.006"/>
</svg>
