<?xml version="1.0" encoding="utf-8"?>
<!-- Generator: Adobe Illustrator 16.0.0, SVG Export Plug-In . SVG Version: 6.00 Build 0)  -->
<!DOCTYPE svg PUBLIC "-//W3C//DTD SVG 1.1//EN" "http://www.w3.org/Graphics/SVG/1.1/DTD/svg11.dtd">
<svg version="1.1" id="Layer_1" xmlns="http://www.w3.org/2000/svg" xmlns:xlink="http://www.w3.org/1999/xlink" x="0px" y="0px"
	 width="1122.66px" height="1584.54px" viewBox="0 0 1122.66 1584.54" enable-background="new 0 0 1122.66 1584.54"
	 xml:space="preserve">
<rect y="0.002" fill="none" width="1122.66" height="1584.538"/>
<path fill="#FAD0DA" d="M814.576,1151.936c0,18.745-15.194,33.94-33.938,33.94H342.022c-18.744,0-33.938-15.195-33.938-33.94
	V849.824c0-18.745,15.194-33.94,33.938-33.94h438.616c18.743,0,33.938,15.195,33.938,33.94V1151.936z"/>
<g>
	<path fill="#F36D50" d="M839.036,1186.436v-142.11c-0.164-38.063-0.418-76.126-1.051-114.178
		c-0.67-40.305-6.119-80.065-24.719-116.813c-22.371-5.951-40.433-17.974-56.672-35.341c-0.974-0.798-1.948-1.59-2.917-2.403
		c0.144-0.113,0.284-0.22,0.424-0.329c-2.229-2.492-4.442-5.054-6.611-7.747c-11.51-4.448-22.992-9.475-34.489-14.744
		c-5.148-2.361-9.639-5.533-13.612-9.209c-48.627,0.538-97.05,6.179-144.518-9.05c-15.69-5.033-29.027-14.622-38.143-27.235
		c-17.126,7.922-35.527,12.524-54.257,15.761c-8.886,13.784-22.357,24.463-39.07,28.315c-35.502,8.182-69.874,20.486-106.884,19.324
		c-29.778-0.938-56.33-18.988-65.834-47.413c-36.787,6.907-73.366,14.655-109.368,25.982c-9.161,2.884-18.543,3.45-27.604,2.134
		c-4.852,19.523-7.328,39.91-7.614,60.872c-1.79,131.875-0.721,263.773-1.193,395.661c-0.074,20.945,8.732,33.813,28.163,41.8
		c123.202,50.638,246.004,102.254,369.474,152.217c16.865,6.826,37.391,10.831,55.095,8.288
		c82.556-11.814,164.701-26.485,247.029-39.913c16.644-2.714,28.242-9.998,33.806-27.137c0.269-0.831,0.65-1.673,1.094-2.507
		v-148.132C839.249,1190.596,839.036,1188.581,839.036,1186.436z"/>
	<g>
		<path fill="#F36D50" d="M591.852,975.382c-2.315-5.764-9.079-22.038-1.904-5.461c-2.254-5.204-4.014-10.519-5.355-15.858
			c-8.309,1.201-16.62,2.373-24.919,3.636c-4.781,0.73-12.276,6.512-12.515,10.328c-1.26,19.989-0.594,40.096-0.594,62.685
			c14.799-2.048,28.079-4.043,40.919-5.773c-0.121-1.665-0.26-3.321-0.328-4.989C586.53,1005.03,587.821,989.796,591.852,975.382z"
			/>
		<path fill="#F36D50" d="M839.036,879.868c0-20.354,14.991-31.021,30.729-32.043c-0.213-4.741-0.469-9.487-0.978-14.211
			c-0.048-0.318-0.09-0.571-0.148-0.922c-1.627-8.426-3.369-16.885-6.076-25.047c-0.867-2.781-1.898-5.51-2.899-8.25
			c-0.42-0.762-1.319-2.6-2.738-5.618c-1.256-2.273-13.844-22.181-8.518-15.307c-8.286-10.702-14.339-22.575-17.423-34.75
			c-6.195-0.718-12.102-1.802-17.719-3.288c18.6,36.748,24.049,76.509,24.719,116.811c0.633,38.055,0.887,76.118,1.051,114.18
			V879.868z"/>
		<path fill="#F36D50" d="M816.744,1214.59c-0.209-117.824,0.402-235.661-0.995-353.473
			c-0.896-75.273-59.695-121.193-133.423-106.252c-14.337,2.912-28.597,7.386-42.104,13.026
			c-60.074,25.073-104.076,103.932-90.464,164.807c11.431-1.424,21.864-2.569,32.189-4.023c1.125-21.344,11.173-41.062,32.92-53.8
			c17.893-10.482,43.244-11.833,63.883-3.7c32.357-2.213,62.117,19.071,71.847,50.825c6.149,20.081,6.149,44.933,0,65.009
			c-0.125,0.399-0.287,0.777-0.42,1.174c12.903,27.62,3.455,61.896-19.38,81.339c0.041,2.819,0.007,5.646-0.174,8.485
			c-2.376,37.777-29.799,69.468-69.47,69.468c-36.065,0-71.85-31.64-69.468-69.468c0.575-9.154-0.216-18.187-1.284-27.203
			c-7.138,1.418-14.274,2.838-21.478,3.409c-17.269,1.374-23.497,9.424-23.28,27.184c0.879,70.828,0.313,141.669,0.436,212.512
			c0.009,6.726,1.068,13.444,1.611,19.816c4.147,0.849,6.262,1.884,8.159,1.58c81.614-13.183,163.27-26.142,244.682-40.458
			c6.196-1.093,13.983-11.289,15.271-18.314C818.288,1242.948,816.77,1228.617,816.744,1214.59z"/>
		<path fill="#F36D50" d="M839.036,1113.533v-142.11c-0.164-38.062-0.418-76.125-1.051-114.18
			c-0.67-40.302-6.119-80.063-24.719-116.811c-22.371-5.951-40.433-17.973-56.672-35.341c-0.974-0.795-1.948-1.59-2.917-2.404
			c0.144-0.11,0.284-0.217,0.424-0.33c-2.229-2.49-4.442-5.052-6.611-7.745c-11.51-4.45-22.992-9.472-34.489-14.744
			c-5.148-2.358-9.639-5.533-13.612-9.209c-48.627,0.537-97.05,6.179-144.518-9.05c-15.69-5.034-29.027-14.622-38.143-27.235
			c-17.126,7.922-35.527,12.523-54.257,15.764c-8.886,13.782-22.357,24.459-39.07,28.312
			c-35.502,8.182-69.874,20.487-106.884,19.325c-29.778-0.938-56.33-18.988-65.834-47.415
			c-36.787,6.907-73.366,14.658-109.368,25.984c-9.161,2.884-18.543,3.45-27.604,2.134c-4.852,19.523-7.328,39.912-7.614,60.872
			c-1.79,131.875-0.721,263.773-1.193,395.665c-0.074,20.942,8.732,33.813,28.163,41.796
			c123.202,50.638,246.004,102.253,369.474,152.22c16.865,6.824,37.391,10.829,55.095,8.288
			c82.556-11.817,164.701-26.488,247.029-39.918c16.644-2.712,28.242-9.996,33.806-27.136c0.269-0.828,0.65-1.672,1.094-2.505
			v-148.133C839.249,1117.693,839.036,1115.68,839.036,1113.533z M815.803,1256.532c-1.287,7.025-9.074,17.222-15.271,18.314
			c-81.412,14.316-163.067,27.275-244.682,40.458c-1.897,0.304-4.012-0.731-8.159-1.58c-0.543-6.372-1.603-13.091-1.611-19.816
			c-0.122-70.843,0.443-141.684-0.436-212.512c-0.217-17.76,6.012-25.81,23.28-27.184c7.203-0.571,14.34-1.991,21.478-3.409
			c-1.026-8.61-2.273-17.208-2.919-25.866c-12.84,1.73-26.12,3.726-40.919,5.773c0-22.589-0.666-42.695,0.594-62.685
			c0.238-3.816,7.733-9.598,12.515-10.328c8.299-1.263,16.61-2.435,24.919-3.636c-2.137-8.507-3.076-17.064-2.644-25.388
			c-10.325,1.454-20.759,2.6-32.189,4.023c-13.612-60.875,30.39-139.734,90.464-164.807c13.507-5.641,27.767-10.115,42.104-13.026
			c73.728-14.941,132.526,30.979,133.423,106.252c1.397,117.812,0.786,235.648,0.995,353.473
			C816.77,1228.617,818.288,1242.948,815.803,1256.532z"/>
	</g>
	<path fill="none" d="M-1517.039-2845.998v7000.371h6977.971v-7000.371H-1517.039z M732.095,870.331
		c0.042,2.821,0.008,5.649-0.174,8.485c-2.375,37.779-29.794,69.471-69.467,69.471c-36.067,0-71.85-31.638-69.468-69.471
		c1.231-19.562-3.718-38.599-4.53-58.059c-0.628-14.927,0.664-30.187,4.668-44.626c-2.338-5.823-9.028-21.914-1.879-5.398
		c-15.049-34.755-10.635-74.217,24.92-95.047c17.893-10.479,43.246-11.833,63.887-3.7c32.358-2.214,62.118,19.074,71.844,50.826
		c6.152,20.083,6.152,44.932,0,65.008c-0.121,0.4-0.287,0.777-0.418,1.172C764.38,816.612,754.931,850.893,732.095,870.331z
		 M977.852,1236.463c6.2,24.323,3.388,44.941,0,69.213c-2.343,16.737-18.067,33.392-31.927,41.513
		c-16.048,9.399-35.601,11.938-53.527,7.003c-10.336-2.842-19.818-8.153-27.746-15.226c-13.494-2.953-25.088-13.345-25.088-31.236
		v-24.178c-0.592-3.84-0.584-7.776,0-11.617v-158.927c0-6.777,1.67-12.471,4.465-17.104c3.372-7.245,9.268-13.232,17.719-16.012
		c8.333-8.491,18.767-14.986,30.65-18.255c17.505-4.819,35.186-2.262,50.105,5.55c25.274,10.477,43.438,35.543,43.438,64.239v8.609
		c0.959,3.499,1.733,7.012,2.273,10.481c1.874,11.988,3.169,20.524,2.449,30.379c2.256,18.835-2.986,37.491-13.951,51.95
		C977.093,1234.053,977.535,1235.222,977.852,1236.463z"/>
	<path fill="none" d="M-1517.039-2845.998v7000.371h6977.971v-7000.371H-1517.039z M732.095,870.331
		c0.042,2.821,0.008,5.649-0.174,8.485c-2.375,37.779-29.794,69.471-69.467,69.471c-36.067,0-71.85-31.638-69.468-69.471
		c1.231-19.562-3.718-38.599-4.53-58.059c-0.628-14.927,0.664-30.187,4.668-44.626c-2.338-5.823-9.028-21.914-1.879-5.398
		c-15.049-34.755-10.635-74.217,24.92-95.047c17.893-10.479,43.246-11.833,63.887-3.7c32.358-2.214,62.118,19.074,71.844,50.826
		c6.152,20.083,6.152,44.932,0,65.008c-0.121,0.4-0.287,0.777-0.418,1.172C764.38,816.612,754.931,850.893,732.095,870.331z
		 M977.852,1236.463c6.2,24.323,3.388,44.941,0,69.213c-2.343,16.737-18.067,33.392-31.927,41.513
		c-16.048,9.399-35.601,11.938-53.527,7.003c-10.336-2.842-19.818-8.153-27.746-15.226c-13.494-2.953-25.088-13.345-25.088-31.236
		v-24.178c-0.592-3.84-0.584-7.776,0-11.617v-158.927c0-6.777,1.67-12.471,4.465-17.104c3.372-7.245,9.268-13.232,17.719-16.012
		c8.333-8.491,18.767-14.986,30.65-18.255c17.505-4.819,35.186-2.262,50.105,5.55c25.274,10.477,43.438,35.543,43.438,64.239v8.609
		c0.959,3.499,1.733,7.012,2.273,10.481c1.874,11.988,3.169,20.524,2.449,30.379c2.256,18.835-2.986,37.491-13.951,51.95
		C977.093,1234.053,977.535,1235.222,977.852,1236.463z"/>
	<path fill-rule="evenodd" clip-rule="evenodd" fill="#FFFFFF" d="M688.651,455.258c40.779-30.639,81.353-51.69,126.093-63.942
		c5.274-1.448,15.378,4.801,19.375,10.295c24.826,34.15,37.419,73.547,44.159,114.638c19.08,116.375,18.912,232.944-1.884,348.996
		c-4.16,23.208-16.543,44.933-25.14,67.348c-2.941-0.525-5.887-1.043-8.834-1.56c-0.539-6.918-1.514-13.832-1.555-20.758
		c-0.511-84.072-0.193-168.163-1.583-252.219c-0.682-41.46-6.397-82.362-26.317-119.989c-15.076-28.478-36.481-48.921-67.566-59.405
		C727.203,472.527,709.791,464.072,688.651,455.258z"/>
	<path fill="none" d="M678.051,435.687c22.783-12.234,43.642-28.215,66.798-39.585c54.244-26.644,110.338-45.706,175.612-27.531
		c-54.233-78.301-259.371-48.895-328.87,46.164c20.282,8.372,39.775,17.712,60.18,24.183
		C659.535,441.386,670.672,439.652,678.051,435.687z"/>
	<path fill="none" d="M593.149,776.193c-2.315-5.765-9.079-22.037-1.904-5.46c-2.251-5.205-4.012-10.521-5.352-15.857
		c-8.31,1.199-16.624,2.371-24.921,3.632c-4.78,0.732-12.276,6.515-12.517,10.33c-1.257,19.991-0.591,40.095-0.591,62.685
		c14.798-2.048,28.076-4.044,40.916-5.772c-0.122-1.667-0.257-3.322-0.325-4.993C587.828,805.841,589.12,790.609,593.149,776.193z"
		/>
	<path fill="none" d="M982.243,638.04c0.3-45.037-14.029-85.593-36.092-123.707c-12.308-21.257-29.341-38.336-55.194-49.314
		c0.923,5.608,1.206,8.215,1.789,10.757c28.58,124.153,24.385,249.234,9.942,374.48c-4.084,35.399-14.195,70.865-40.006,95.487
		c-28.007,26.715-15.695,56.023-18.933,91.135c17.827-9.373,31.053-15.222,43.133-22.883c47.978-30.409,68.685-78.312,80.56-130.775
		C985.746,802.403,981.698,720.057,982.243,638.04z"/>
	<path fill="none" d="M818.044,1015.399c-0.211-117.818,0.402-235.657-0.997-353.469c-0.895-75.275-59.695-121.191-133.423-106.252
		c-14.338,2.913-28.595,7.385-42.103,13.028c-60.072,25.07-104.073,103.93-90.462,164.807c11.43-1.428,21.86-2.57,32.189-4.026
		c1.122-21.343,11.17-41.062,32.916-53.8c17.893-10.479,43.246-11.833,63.887-3.7c32.358-2.214,62.118,19.074,71.844,50.826
		c6.152,20.083,6.152,44.932,0,65.008c-0.121,0.4-0.287,0.777-0.418,1.172c12.902,27.62,3.453,61.9-19.383,81.339
		c0.042,2.821,0.008,5.649-0.174,8.485c-2.375,37.779-29.794,69.471-69.467,69.471c-36.067,0-71.85-31.638-69.468-69.471
		c0.573-9.15-0.214-18.184-1.282-27.201c-7.14,1.419-14.278,2.837-21.481,3.407c-17.269,1.375-23.497,9.424-23.278,27.188
		c0.88,70.824,0.312,141.667,0.436,212.509c0.008,6.727,1.069,13.444,1.612,19.818c4.148,0.847,6.262,1.883,8.156,1.579
		c81.614-13.182,163.27-26.142,244.683-40.458c6.196-1.095,13.985-11.289,15.27-18.313
		C819.589,1043.761,818.067,1029.427,818.044,1015.399z"/>
	<path fill="none" d="M876.395,865.244c20.796-116.052,20.964-232.622,1.884-348.996c-6.74-41.091-19.333-80.487-44.159-114.638
		c-3.997-5.494-14.101-11.743-19.375-10.295c-44.74,12.252-85.313,33.303-126.093,63.942c21.14,8.814,38.552,17.269,56.748,23.403
		c31.085,10.484,52.49,30.928,67.566,59.405c19.92,37.627,25.636,78.528,26.317,119.989c1.39,84.057,1.072,168.147,1.583,252.219
		c0.041,6.926,1.016,13.84,1.555,20.758c2.947,0.517,5.893,1.034,8.834,1.56C859.852,910.177,872.234,888.452,876.395,865.244z"/>
	<path fill="#FFFFFF" d="M504.588,385c15.927,5.295,26.827,8.922,39.09,13c0-21.544,0-40.365,0-59.189
		c-1.537-0.592-3.069-1.184-4.604-1.778C528.204,352.147,517.333,367.271,504.588,385z"/>
	<path fill="none" d="M678.051,435.687c22.783-12.234,43.642-28.215,66.798-39.585c54.244-26.644,110.338-45.706,175.612-27.531
		c-54.233-78.301-259.371-48.895-328.87,46.164c20.282,8.372,39.775,17.712,60.18,24.183
		C659.535,441.386,670.672,439.652,678.051,435.687z"/>
	<path fill="none" d="M504.588,385c15.927,5.295,26.827,8.922,39.09,13c0-21.544,0-40.365,0-59.189
		c-1.537-0.592-3.069-1.184-4.604-1.778C528.204,352.147,517.333,367.271,504.588,385z"/>
	<path fill="none" d="M593.149,776.193c-2.315-5.765-9.079-22.037-1.904-5.46c-2.251-5.205-4.012-10.521-5.352-15.857
		c-8.31,1.199-16.624,2.371-24.921,3.632c-4.78,0.732-12.276,6.515-12.517,10.33c-1.257,19.991-0.591,40.095-0.591,62.685
		c14.798-2.048,28.076-4.044,40.916-5.772c-0.122-1.667-0.257-3.322-0.325-4.993C587.828,805.841,589.12,790.609,593.149,776.193z"
		/>
	<path fill="none" d="M982.243,638.04c0.3-45.037-14.029-85.593-36.092-123.707c-12.308-21.257-29.341-38.336-55.194-49.314
		c0.923,5.608,1.206,8.215,1.789,10.757c28.58,124.153,24.385,249.234,9.942,374.48c-4.084,35.399-14.195,70.865-40.006,95.487
		c-28.007,26.715-15.695,56.023-18.933,91.135c17.827-9.373,31.053-15.222,43.133-22.883c47.978-30.409,68.685-78.312,80.56-130.775
		C985.746,802.403,981.698,720.057,982.243,638.04z"/>
	<path fill="none" d="M876.395,865.244c20.796-116.052,20.964-232.622,1.884-348.996c-6.74-41.091-19.333-80.487-44.159-114.638
		c-3.997-5.494-14.101-11.743-19.375-10.295c-44.74,12.252-85.313,33.303-126.093,63.942c21.14,8.814,38.552,17.269,56.748,23.403
		c31.085,10.484,52.49,30.928,67.566,59.405c19.92,37.627,25.636,78.528,26.317,119.989c1.39,84.057,1.072,168.147,1.583,252.219
		c0.041,6.926,1.016,13.84,1.555,20.758c2.947,0.517,5.893,1.034,8.834,1.56C859.852,910.177,872.234,888.452,876.395,865.244z"/>
	<path fill="none" d="M818.044,1015.399c-0.211-117.818,0.402-235.657-0.997-353.469c-0.895-75.275-59.695-121.191-133.423-106.252
		c-14.338,2.913-28.595,7.385-42.103,13.028c-60.072,25.07-104.073,103.93-90.462,164.807c11.43-1.428,21.86-2.57,32.189-4.026
		c1.122-21.343,11.17-41.062,32.916-53.8c17.893-10.479,43.246-11.833,63.887-3.7c32.358-2.214,62.118,19.074,71.844,50.826
		c6.152,20.083,6.152,44.932,0,65.008c-0.121,0.4-0.287,0.777-0.418,1.172c12.902,27.62,3.453,61.9-19.383,81.339
		c0.042,2.821,0.008,5.649-0.174,8.485c-2.375,37.779-29.794,69.471-69.467,69.471c-36.067,0-71.85-31.638-69.468-69.471
		c0.573-9.15-0.214-18.184-1.282-27.201c-7.14,1.419-14.278,2.837-21.481,3.407c-17.269,1.375-23.497,9.424-23.278,27.188
		c0.88,70.824,0.312,141.667,0.436,212.509c0.008,6.727,1.069,13.444,1.612,19.818c4.148,0.847,6.262,1.883,8.156,1.579
		c81.614-13.182,163.27-26.142,244.683-40.458c6.196-1.095,13.985-11.289,15.27-18.313
		C819.589,1043.761,818.067,1029.427,818.044,1015.399z"/>
	<path fill="none" d="M817.047,661.93c-0.895-75.275-59.695-121.191-133.423-106.252c-14.338,2.913-28.595,7.385-42.103,13.028
		c-60.072,25.07-104.073,103.93-90.462,164.807c11.43-1.428,21.86-2.57,32.189-4.026c-0.436,8.321,0.505,16.881,2.645,25.39
		c-8.31,1.199-16.624,2.371-24.921,3.632c-4.78,0.732-12.276,6.515-12.517,10.33c-1.257,19.991-0.591,40.095-0.591,62.685
		c14.798-2.048,28.076-4.044,40.916-5.772c0.649,8.659,1.892,17.256,2.923,25.864c-7.14,1.419-14.278,2.837-21.481,3.407
		c-17.269,1.375-23.497,9.424-23.278,27.188c0.88,70.824,0.312,141.667,0.436,212.509c0.008,6.727,1.069,13.444,1.612,19.818
		c4.148,0.847,6.262,1.883,8.156,1.579c81.614-13.182,163.27-26.142,244.683-40.458c6.196-1.095,13.985-11.289,15.27-18.313
		c2.488-13.585,0.967-27.919,0.943-41.946C817.833,897.581,818.446,779.742,817.047,661.93z"/>
	<path fill="none" d="M876.395,865.244c20.796-116.052,20.964-232.622,1.884-348.996c-6.74-41.091-19.333-80.487-44.159-114.638
		c-3.997-5.494-14.101-11.743-19.375-10.295c-44.74,12.252-85.313,33.303-126.093,63.942c21.14,8.814,38.552,17.269,56.748,23.403
		c31.085,10.484,52.49,30.928,67.566,59.405c19.92,37.627,25.636,78.528,26.317,119.989c1.39,84.057,1.072,168.147,1.583,252.219
		c0.041,6.926,1.016,13.84,1.555,20.758c2.947,0.517,5.893,1.034,8.834,1.56C859.852,910.177,872.234,888.452,876.395,865.244z"/>
	<path fill="none" d="M504.588,385c15.927,5.295,26.827,8.922,39.09,13v-59.189c-1.537-0.592-3.069-1.184-4.604-1.778
		C528.204,352.147,517.333,367.271,504.588,385z"/>
	<path fill="none" d="M876.395,865.244c20.796-116.052,20.964-232.622,1.884-348.996c-6.74-41.091-19.333-80.487-44.159-114.638
		c-3.997-5.494-14.101-11.743-19.375-10.295c-44.74,12.252-85.313,33.303-126.093,63.942c21.14,8.814,38.552,17.269,56.748,23.403
		c31.085,10.484,52.49,30.928,67.566,59.405c19.92,37.627,25.636,78.528,26.317,119.989c1.39,84.057,1.072,168.147,1.583,252.219
		c0.041,6.926,1.016,13.84,1.555,20.758c2.947,0.517,5.893,1.034,8.834,1.56C859.852,910.177,872.234,888.452,876.395,865.244z"/>
	<path fill="none" d="M504.588,385c15.927,5.295,26.827,8.922,39.09,13v-59.189c-1.537-0.592-3.069-1.184-4.604-1.778
		C528.204,352.147,517.333,367.271,504.588,385z"/>
	<path fill="none" d="M817.047,661.93c-0.895-75.275-59.695-121.191-133.423-106.252c-14.338,2.913-28.595,7.385-42.103,13.028
		c-60.072,25.07-104.073,103.93-90.462,164.807c11.43-1.428,21.86-2.57,32.189-4.026c-0.436,8.321,0.505,16.881,2.645,25.39
		c-8.31,1.199-16.624,2.371-24.921,3.632c-4.78,0.732-12.276,6.515-12.517,10.33c-1.257,19.991-0.591,40.095-0.591,62.685
		c14.798-2.048,28.076-4.044,40.916-5.772c0.649,8.659,1.892,17.256,2.923,25.864c-7.14,1.419-14.278,2.837-21.481,3.407
		c-17.269,1.375-23.497,9.424-23.278,27.188c0.88,70.824,0.312,141.667,0.436,212.509c0.008,6.727,1.069,13.444,1.612,19.818
		c4.148,0.847,6.262,1.883,8.156,1.579c81.614-13.182,163.27-26.142,244.683-40.458c6.196-1.095,13.985-11.289,15.27-18.313
		c2.488-13.585,0.967-27.919,0.943-41.946C817.833,897.581,818.446,779.742,817.047,661.93z"/>
	<g>
		<path fill="none" d="M817.047,661.93c-0.895-75.275-59.695-121.191-133.423-106.252c-14.338,2.913-28.595,7.385-42.103,13.028
			c-60.072,25.07-104.073,103.93-90.462,164.807c11.43-1.428,21.86-2.57,32.189-4.026c-0.436,8.321,0.505,16.881,2.645,25.39
			c-8.31,1.199-16.624,2.371-24.921,3.632c-4.78,0.732-12.276,6.515-12.517,10.33c-1.257,19.991-0.591,40.095-0.591,62.685
			c14.798-2.048,28.076-4.044,40.916-5.772c0.649,8.659,1.892,17.256,2.923,25.864c-7.14,1.419-14.278,2.837-21.481,3.407
			c-17.269,1.375-23.497,9.424-23.278,27.188c0.88,70.824,0.312,141.667,0.436,212.509c0.008,6.727,1.069,13.444,1.612,19.818
			c4.148,0.847,6.262,1.883,8.156,1.579c81.614-13.182,163.27-26.142,244.683-40.458c6.196-1.095,13.985-11.289,15.27-18.313
			c2.488-13.585,0.967-27.919,0.943-41.946C817.833,897.581,818.446,779.742,817.047,661.93z"/>
		<path fill="none" d="M504.588,385c15.927,5.295,26.827,8.922,39.09,13v-59.189c-1.537-0.592-3.069-1.184-4.604-1.778
			C528.204,352.147,517.333,367.271,504.588,385z"/>
		<path fill="none" d="M876.395,865.244c20.796-116.052,20.964-232.622,1.884-348.996c-6.74-41.091-19.333-80.487-44.159-114.638
			c-3.997-5.494-14.101-11.743-19.375-10.295c-44.74,12.252-85.313,33.303-126.093,63.942c21.14,8.814,38.552,17.269,56.748,23.403
			c31.085,10.484,52.49,30.928,67.566,59.405c19.92,37.627,25.636,78.528,26.317,119.989c1.39,84.057,1.072,168.147,1.583,252.219
			c0.041,6.926,1.016,13.84,1.555,20.758c2.947,0.517,5.893,1.034,8.834,1.56C859.852,910.177,872.234,888.452,876.395,865.244z"/>
		<path fill="#F36D50" d="M1003.482,590.964c-2.98-52.867-11.202-106.079-23.437-157.612
			c-16.475-69.395-58.164-117.845-133.167-128.444c-55.102-7.797-109.175-4.442-160.563,19.701
			c-4.785,2.254-10.143,3.273-17.753,5.65c0-14.793-0.015-27.21,0-39.627c0.099-59.165-53.26-101.565-110.919-89.937
			c-64.159,12.942-97.574,59.216-125.504,111.892c-19.966,37.671-19.456,37.539-61.391,25.665
			c-71.997-20.395-139.879-14.719-196.575,38.739c-46.358,43.696-65.934,101.012-66.78,163.17
			c-1.787,131.873-0.719,263.771-1.194,395.663c-0.073,20.943,8.733,33.813,28.167,41.799
			c123.202,50.638,246,102.255,369.47,152.218c16.866,6.825,37.39,10.828,55.095,8.288c82.556-11.817,164.701-26.485,247.031-39.914
			c16.644-2.714,28.243-10,33.806-27.136c1.964-6.053,8.78-12.584,14.899-14.918c72.528-27.728,113.176-81.53,130.946-155.508
			C1010.168,798.442,1009.329,694.6,1003.482,590.964z M543.678,398c-12.263-4.078-23.163-7.705-39.09-13
			c12.745-17.729,23.616-32.853,34.486-47.967c1.534,0.594,3.066,1.186,4.604,1.778V398z M817.101,1057.346
			c-1.284,7.023-9.073,17.218-15.27,18.313c-81.413,14.316-163.068,27.276-244.683,40.458c-1.895,0.304-4.008-0.732-8.156-1.579
			c-0.543-6.374-1.604-13.092-1.612-19.818c-0.124-70.842,0.444-141.685-0.436-212.509c-0.219-17.764,6.01-25.813,23.278-27.188
			c7.203-0.57,14.342-1.988,21.481-3.407c-1.031-8.608-2.273-17.205-2.923-25.864c-12.84,1.729-26.118,3.725-40.916,5.772
			c0-22.59-0.666-42.694,0.591-62.685c0.24-3.814,7.736-9.598,12.517-10.33c8.297-1.262,16.611-2.433,24.921-3.632
			c-2.14-8.509-3.08-17.069-2.645-25.39c-10.329,1.456-20.76,2.598-32.189,4.026c-13.611-60.876,30.39-139.736,90.462-164.807
			c13.508-5.643,27.765-10.115,42.103-13.028c73.728-14.939,132.528,30.977,133.423,106.252
			c1.399,117.812,0.786,235.651,0.997,353.469C818.067,1029.427,819.589,1043.761,817.101,1057.346z M840.866,910.274
			c-0.511-84.072-0.193-168.163-1.583-252.219c-0.682-41.46-6.397-82.362-26.317-119.989
			c-15.076-28.478-36.481-48.921-67.566-59.405c-18.196-6.134-35.608-14.589-56.748-23.403
			c40.779-30.639,81.353-51.69,126.093-63.942c5.274-1.448,15.378,4.801,19.375,10.295c24.826,34.15,37.419,73.547,44.159,114.638
			c19.08,116.375,18.912,232.944-1.884,348.996c-4.16,23.208-16.543,44.933-25.14,67.348c-2.941-0.525-5.887-1.043-8.834-1.56
			C841.882,924.114,840.907,917.2,840.866,910.274z"/>
	</g>
	<g>
		<path fill-rule="evenodd" clip-rule="evenodd" fill="#FAD0DA" d="M818.044,1015.399c-0.211-117.818,0.402-235.657-0.997-353.469
			c-0.895-75.275-59.695-121.191-133.423-106.252c-14.338,2.913-28.595,7.385-42.103,13.028
			c-60.072,25.07-104.073,103.93-90.462,164.807c11.43-1.428,21.86-2.57,32.189-4.026c1.122-21.343,11.17-41.062,32.916-53.8
			c17.893-10.479,43.246-11.833,63.887-3.7c32.358-2.214,62.118,19.074,71.844,50.826c6.152,20.083,6.152,44.932,0,65.008
			c-0.121,0.4-0.287,0.777-0.418,1.172c12.902,27.62,3.453,61.9-19.383,81.339c0.042,2.821,0.008,5.649-0.174,8.485
			c-2.375,37.779-29.794,69.471-69.467,69.471c-36.067,0-71.85-31.638-69.468-69.471c0.573-9.15-0.214-18.184-1.282-27.201
			c-7.14,1.419-14.278,2.837-21.481,3.407c-17.269,1.375-23.497,9.424-23.278,27.188c0.88,70.824,0.312,141.667,0.436,212.509
			c0.008,6.727,1.069,13.444,1.612,19.818c4.148,0.847,6.262,1.883,8.156,1.579c81.614-13.182,163.27-26.142,244.683-40.458
			c6.196-1.095,13.985-11.289,15.27-18.313C819.589,1043.761,818.067,1029.427,818.044,1015.399z"/>
		<path fill-rule="evenodd" clip-rule="evenodd" fill="#FAD0DA" d="M594.251,654.188c-1.147,28.375-19.933,52.76-45.532,62.346
			v274.557h226.01V654.188H594.251z"/>
	</g>
	<g>
		<path fill-rule="evenodd" clip-rule="evenodd" fill="#FAD0DA" d="M818.044,1212.475c-0.211-117.821,0.402-235.656-0.997-353.472
			c-0.895-75.273-59.695-121.189-133.423-106.249c-14.338,2.909-28.595,7.383-42.103,13.023
			c-60.072,25.074-104.073,103.932-90.462,164.809c11.43-1.428,21.86-2.569,32.189-4.025c1.122-21.344,11.17-41.062,32.916-53.8
			c17.893-10.479,43.246-11.833,63.887-3.7c32.358-2.213,62.118,19.074,71.844,50.828c6.152,20.078,6.152,44.93,0,65.006
			c-0.121,0.4-0.287,0.777-0.418,1.172c12.902,27.622,3.453,61.898-19.383,81.34c0.042,2.82,0.008,5.647-0.174,8.484
			c-2.375,37.778-29.794,69.47-69.467,69.47c-36.067,0-71.85-31.637-69.468-69.47c0.573-9.152-0.214-18.185-1.282-27.201
			c-7.14,1.42-14.278,2.838-21.481,3.409c-17.269,1.375-23.497,9.424-23.278,27.184c0.88,70.828,0.312,141.67,0.436,212.512
			c0.008,6.726,1.069,13.444,1.612,19.817c4.148,0.848,6.262,1.883,8.156,1.578c81.614-13.182,163.27-26.141,244.683-40.458
			c6.196-1.094,13.985-11.289,15.27-18.313C819.589,1240.835,818.067,1226.504,818.044,1212.475z"/>
		<path fill-rule="evenodd" clip-rule="evenodd" fill="#FAD0DA" d="M594.251,851.263c-1.147,28.372-19.933,52.76-45.532,62.347
			v274.557h226.01V851.263H594.251z"/>
	</g>
</g>
</svg>
